<svg width="24" height="24" viewBox="0 0 24 24" fill="none" xmlns="http://www.w3.org/2000/svg">
    <path
        d="M12.0008 13.4L9.10078 16.3C8.91745 16.4833 8.68411 16.575 8.40078 16.575C8.11745 16.575 7.88411 16.4833 7.70078 16.3C7.51745 16.1167 7.42578 15.8833 7.42578 15.6C7.42578 15.3167 7.51745 15.0833 7.70078 14.9L10.6008 12L7.70078 9.125C7.51745 8.94166 7.42578 8.70833 7.42578 8.425C7.42578 8.14166 7.51745 7.90833 7.70078 7.725C7.88411 7.54166 8.11745 7.45 8.40078 7.45C8.68411 7.45 8.91745 7.54166 9.10078 7.725L12.0008 10.625L14.8758 7.725C15.0591 7.54166 15.2924 7.45 15.5758 7.45C15.8591 7.45 16.0924 7.54166 16.2758 7.725C16.4758 7.925 16.5758 8.1625 16.5758 8.4375C16.5758 8.7125 16.4758 8.94166 16.2758 9.125L13.3758 12L16.2758 14.9C16.4591 15.0833 16.5508 15.3167 16.5508 15.6C16.5508 15.8833 16.4591 16.1167 16.2758 16.3C16.0758 16.5 15.8383 16.6 15.5633 16.6C15.2883 16.6 15.0591 16.5 14.8758 16.3L12.0008 13.4Z"
        fill="currentColor" />
</svg>