<svg width="24" height="24" viewBox="0 0 24 24" fill="none" xmlns="http://www.w3.org/2000/svg">
<mask id="mask0_54315_1178" style="mask-type:alpha" maskUnits="userSpaceOnUse" x="0" y="0" width="24" height="24">
<rect width="24" height="24" fill="#D9D9D9"/>
</mask>
<g mask="url(#mask0_54315_1178)">
<path d="M7.82578 13L12.7258 17.9C12.9258 18.1 13.0216 18.3333 13.0133 18.6C13.0049 18.8667 12.9008 19.1 12.7008 19.3C12.5008 19.4833 12.2674 19.5792 12.0008 19.5875C11.7341 19.5958 11.5008 19.5 11.3008 19.3L4.70078 12.7C4.60078 12.6 4.52995 12.4917 4.48828 12.375C4.44661 12.2583 4.42578 12.1333 4.42578 12C4.42578 11.8667 4.44661 11.7417 4.48828 11.625C4.52995 11.5083 4.60078 11.4 4.70078 11.3L11.3008 4.7C11.4841 4.51667 11.7133 4.425 11.9883 4.425C12.2633 4.425 12.5008 4.51667 12.7008 4.7C12.9008 4.9 13.0008 5.1375 13.0008 5.4125C13.0008 5.6875 12.9008 5.925 12.7008 6.125L7.82578 11H19.0008C19.2841 11 19.5216 11.0958 19.7133 11.2875C19.9049 11.4792 20.0008 11.7167 20.0008 12C20.0008 12.2833 19.9049 12.5208 19.7133 12.7125C19.5216 12.9042 19.2841 13 19.0008 13H7.82578Z" fill="black" fill-opacity="1"/>
</g>
</svg>
