<svg width="62" height="46" viewBox="0 0 62 46" fill="none" xmlns="http://www.w3.org/2000/svg">
<mask id="path-1-inside-1_0_49" fill="white">
<path d="M0.5 4C0.5 1.79086 2.29086 0 4.5 0H57.5C59.7091 0 61.5 1.79086 61.5 4V42C61.5 44.2091 59.7091 46 57.5 46H4.5C2.29086 46 0.5 44.2091 0.5 42V4Z"/>
</mask>
<path d="M0.5 0H61.5H0.5ZM61.5 42C61.5 44.7614 59.2614 47 56.5 47H5.5C2.73858 47 0.5 44.7614 0.5 42C0.5 43.6569 2.29086 45 4.5 45H57.5C59.7091 45 61.5 43.6569 61.5 42ZM0.5 46V0V46ZM61.5 0V46V0Z" fill="#090F1F" mask="url(#path-1-inside-1_0_49)"/>
</svg>
