<svg width="16" height="16" viewBox="0 0 16 16" fill="none" xmlns="http://www.w3.org/2000/svg">
<mask id="mask0_61903_496" style="mask-type:alpha" maskUnits="userSpaceOnUse" x="0" y="0" width="16" height="16">
<rect width="16" height="16" fill="#D9D9D9"/>
</mask>
<g mask="url(#mask0_61903_496)">
<path d="M7.33464 4.00002H6.0013C5.81241 4.00002 5.65408 3.93613 5.5263 3.80835C5.39852 3.68058 5.33464 3.52224 5.33464 3.33335C5.33464 3.14446 5.39852 2.98613 5.5263 2.85835C5.65408 2.73058 5.81241 2.66669 6.0013 2.66669H7.33464V1.33335C7.33464 1.14446 7.39852 0.986131 7.5263 0.858354C7.65408 0.730576 7.81241 0.666687 8.0013 0.666687C8.19019 0.666687 8.34853 0.730576 8.4763 0.858354C8.60408 0.986131 8.66797 1.14446 8.66797 1.33335V2.66669H10.0013C10.1902 2.66669 10.3485 2.73058 10.4763 2.85835C10.6041 2.98613 10.668 3.14446 10.668 3.33335C10.668 3.52224 10.6041 3.68058 10.4763 3.80835C10.3485 3.93613 10.1902 4.00002 10.0013 4.00002H8.66797V5.33335C8.66797 5.52224 8.60408 5.68058 8.4763 5.80835C8.34853 5.93613 8.19019 6.00002 8.0013 6.00002C7.81241 6.00002 7.65408 5.93613 7.5263 5.80835C7.39852 5.68058 7.33464 5.52224 7.33464 5.33335V4.00002ZM4.66797 14.6667C4.3013 14.6667 3.98741 14.5361 3.7263 14.275C3.46519 14.0139 3.33464 13.7 3.33464 13.3334C3.33464 12.9667 3.46519 12.6528 3.7263 12.3917C3.98741 12.1306 4.3013 12 4.66797 12C5.03464 12 5.34852 12.1306 5.60964 12.3917C5.87075 12.6528 6.0013 12.9667 6.0013 13.3334C6.0013 13.7 5.87075 14.0139 5.60964 14.275C5.34852 14.5361 5.03464 14.6667 4.66797 14.6667ZM11.3346 14.6667C10.968 14.6667 10.6541 14.5361 10.393 14.275C10.1319 14.0139 10.0013 13.7 10.0013 13.3334C10.0013 12.9667 10.1319 12.6528 10.393 12.3917C10.6541 12.1306 10.968 12 11.3346 12C11.7013 12 12.0152 12.1306 12.2763 12.3917C12.5374 12.6528 12.668 12.9667 12.668 13.3334C12.668 13.7 12.5374 14.0139 12.2763 14.275C12.0152 14.5361 11.7013 14.6667 11.3346 14.6667ZM2.0013 2.66669H1.33464C1.14575 2.66669 0.987413 2.6028 0.859635 2.47502C0.731858 2.34724 0.667969 2.18891 0.667969 2.00002C0.667969 1.81113 0.731858 1.6528 0.859635 1.52502C0.987413 1.39724 1.14575 1.33335 1.33464 1.33335H2.43464C2.55686 1.33335 2.67352 1.36669 2.78464 1.43335C2.89575 1.50002 2.97908 1.59446 3.03464 1.71669L5.68464 7.33335H10.3513L12.768 3.00002C12.8235 2.88891 12.9013 2.80558 13.0013 2.75002C13.1013 2.69446 13.2124 2.66669 13.3346 2.66669C13.5902 2.66669 13.7819 2.77502 13.9096 2.99169C14.0374 3.20835 14.0402 3.4278 13.918 3.65002L11.5346 7.96669C11.4124 8.18891 11.2485 8.36113 11.043 8.48335C10.8374 8.60558 10.6124 8.66669 10.368 8.66669H5.4013L4.66797 10H12.0013C12.1902 10 12.3485 10.0639 12.4763 10.1917C12.6041 10.3195 12.668 10.4778 12.668 10.6667C12.668 10.8556 12.6041 11.0139 12.4763 11.1417C12.3485 11.2695 12.1902 11.3334 12.0013 11.3334H4.66797C4.16797 11.3334 3.78741 11.1167 3.5263 10.6834C3.26519 10.25 3.25686 9.81113 3.5013 9.36669L4.4013 7.73335L2.0013 2.66669Z" fill="#1C1B1F"/>
</g>
</svg>
