<svg width="24" height="24" viewBox="0 0 24 24" fill="none" xmlns="http://www.w3.org/2000/svg">
<mask id="mask0_54210_13149" style="mask-type:alpha" maskUnits="userSpaceOnUse" x="0" y="0" width="24" height="24">
<rect width="24" height="24" fill="#D9D9D9"/>
</mask>
<g mask="url(#mask0_54210_13149)">
<path d="M12.6008 12L8.70078 8.1C8.51745 7.91667 8.42578 7.68334 8.42578 7.4C8.42578 7.11667 8.51745 6.88334 8.70078 6.7C8.88411 6.51667 9.11745 6.425 9.40078 6.425C9.68411 6.425 9.91745 6.51667 10.1008 6.7L14.7008 11.3C14.8008 11.4 14.8716 11.5083 14.9133 11.625C14.9549 11.7417 14.9758 11.8667 14.9758 12C14.9758 12.1333 14.9549 12.2583 14.9133 12.375C14.8716 12.4917 14.8008 12.6 14.7008 12.7L10.1008 17.3C9.91745 17.4833 9.68411 17.575 9.40078 17.575C9.11745 17.575 8.88411 17.4833 8.70078 17.3C8.51745 17.1167 8.42578 16.8833 8.42578 16.6C8.42578 16.3167 8.51745 16.0833 8.70078 15.9L12.6008 12Z" fill="#090F1F"/>
</g>
</svg>
